#format: frame checksums
#version: 2
#hash: MD5
#extradata 0,                              42, e89deaac1c1a77d78033d7d9c66b8264
#tb 0: 1/61440
#media_type 0: video
#codec_id 0: ffv1
#dimensions 0: 320x180
#sar 0: 0/1
#stream#, dts,        pts, duration,     size, hash
0,          0,          0,     2048,     8936, cac2a8cb77bae9efb58a36819328995f
0,       2048,       2048,     2048,     8144, d0734cc37707a3cadf17b30d3ef923ff
0,       4096,       4096,     2048,     8144, d0734cc37707a3cadf17b30d3ef923ff
0,       6144,       6144,     2048,     8990, c2e15251743c60ff819c4179229285c1
0,       8192,       8192,     2048,     8990, c2e15251743c60ff819c4179229285c1
0,      10240,      10240,     2048,     9164, ab47167af47dd9eb6b9a2336ef5f849e
0,      12288,      12288,     2048,     9164, ab47167af47dd9eb6b9a2336ef5f849e
0,      14336,      14336,     2048,     8549, ced06ae33bd996934b9f4d3f82560fe3
0,      16384,      16384,     2048,     8549, ced06ae33bd996934b9f4d3f82560fe3
0,      18432,      18432,     2048,     9454, b59969f574a28567f48fbc5bc35e86ec
0,      20480,      20480,     2048,     9454, b59969f574a28567f48fbc5bc35e86ec
0,      22528,      22528,     2048,     9584, fa53c31885c9fd4e5ab8b949ea6b1cc2
0,      24576,      24576,     2048,     9584, fa53c31885c9fd4e5ab8b949ea6b1cc2
0,      26624,      26624,     2048,     9103, b220f2f2fc7b910cc46c704dd1293268
0,      28672,      28672,     2048,     9103, b220f2f2fc7b910cc46c704dd1293268
0,      30720,      30720,     2048,     9853, b48ddcf8eac0162bfcc85d2629b4e0a6
0,      32768,      32768,     2048,     9853, b48ddcf8eac0162bfcc85d2629b4e0a6
0,      34816,      34816,     2048,     9292, 4fb57debc8cdd932e283661fc77598af
0,      36864,      36864,     2048,     9292, 4fb57debc8cdd932e283661fc77598af
0,      38912,      38912,     2048,    10196, 9d7fc37d64e1d65a0f6b9c33ed4f7e83
0,      40960,      40960,     2048,    10196, 9d7fc37d64e1d65a0f6b9c33ed4f7e83
0,      43008,      43008,     2048,     9062, 9a327e692bf14f43919fd767ebea0a6b
0,      45056,      45056,     2048,     9062, 9a327e692bf14f43919fd767ebea0a6b
0,      47104,      47104,     2048,    10169, 1966308221f77b7648f3efa7445789de
0,      49152,      49152,     2048,    10169, 1966308221f77b7648f3efa7445789de
0,      51200,      51200,     2048,    10198, 8bdb2104ecf6c1baec5c31adb70cc077
0,      53248,      53248,     2048,    10198, 8bdb2104ecf6c1baec5c31adb70cc077
0,      55296,      55296,     2048,     9527, 610f729506fe8d953b55ef2da96f11dd
0,      57344,      57344,     2048,     9527, 610f729506fe8d953b55ef2da96f11dd
0,      59392,      59392,     2048,    10031, 81ce8c3c4f51bcb0a3dd330b0b512cd1
0,      61440,      61440,     2048,    10031, 81ce8c3c4f51bcb0a3dd330b0b512cd1
0,      63488,      63488,     2048,    10389, ad2f626dadcfef44d76cf976bb4914a5
0,      65536,      65536,     2048,    10389, ad2f626dadcfef44d76cf976bb4914a5
0,      67584,      67584,     2048,     9569, 7f3487c5f52d9ebf122a8b2732eb0462
0,      69632,      69632,     2048,     9569, 7f3487c5f52d9ebf122a8b2732eb0462
0,      71680,      71680,     2048,    10380, dc6d391330a1d9bab2c2f11b03335f72
0,      73728,      73728,     2048,    10380, dc6d391330a1d9bab2c2f11b03335f72
0,      75776,      75776,     2048,    10016, 4ce12e3d35201db311f817f01fcb34ba
0,      77824,      77824,     2048,    10016, 4ce12e3d35201db311f817f01fcb34ba
0,      79872,      79872,     2048,    10500, 062bdbb7106371394b0cbd031b67e9aa
0,      81920,      81920,     2048,    10500, 062bdbb7106371394b0cbd031b67e9aa
0,      83968,      83968,     2048,     9521, 4c131c1bbf63bfd7b3305d30a681186d
0,      86016,      86016,     2048,     9521, 4c131c1bbf63bfd7b3305d30a681186d
0,      88064,      88064,     2048,    10541, d7515d6207fe39d2cd2fe2a8ed5b6f9a
0,      90112,      90112,     2048,    10541, d7515d6207fe39d2cd2fe2a8ed5b6f9a
0,      92160,      92160,     2048,    10656, f710ad87819740a8814dba7534cb3463
0,      94208,      94208,     2048,    10656, f710ad87819740a8814dba7534cb3463
0,      96256,      96256,     2048,    10078, 48523edc49640533f4cb9f917bada445
0,      98304,      98304,     2048,    10078, 48523edc49640533f4cb9f917bada445
0,     100352,     100352,     2048,    10444, 3e1af6fbcf5dc5568c89f95fb190699f
0,     102400,     102400,     2048,    10444, 3e1af6fbcf5dc5568c89f95fb190699f
0,     104448,     104448,     2048,    10611, d047d724c6924a6ca2f5da969f9fb2d2
0,     106496,     106496,     2048,    10611, d047d724c6924a6ca2f5da969f9fb2d2
0,     108544,     108544,     2048,     9658, 51a6e91184dce7fa9ac16b7b5f768b21
0,     110592,     110592,     2048,     9658, 51a6e91184dce7fa9ac16b7b5f768b21
0,     112640,     112640,     2048,    10611, 548c4d20db68ea59754713ed61ee074c
0,     114688,     114688,     2048,    10611, 548c4d20db68ea59754713ed61ee074c
0,     116736,     116736,     2048,    10225, 3f9403924158d10b98384d1ae2365951
0,     118784,     118784,     2048,    10225, 3f9403924158d10b98384d1ae2365951
0,     120832,     120832,     2048,    10445, 25e34107f2f004d9f3746e9a242065e5
0,     122880,     122880,     2048,    10445, 25e34107f2f004d9f3746e9a242065e5
0,     124928,     124928,     2048,     9867, 21da4a0d05873b46826d638e64da0362
0,     126976,     126976,     2048,     9867, 21da4a0d05873b46826d638e64da0362
0,     129024,     129024,     2048,    11049, 03f3e0d74ee2e98c236b8b1ce1cc9fe2
0,     131072,     131072,     2048,    11049, 03f3e0d74ee2e98c236b8b1ce1cc9fe2
0,     133120,     133120,     2048,    10616, d72daf1f046aaf4c660faed4c7e9a481
0,     135168,     135168,     2048,    10616, d72daf1f046aaf4c660faed4c7e9a481
0,     137216,     137216,     2048,    10322, 23c79e30bbde084579f5688b4a53e88a
0,     139264,     139264,     2048,    10322, 23c79e30bbde084579f5688b4a53e88a
0,     141312,     141312,     2048,    10309, 6c6456c22f12f7b4141275d96396efa4
0,     143360,     143360,     2048,    10309, 6c6456c22f12f7b4141275d96396efa4
0,     145408,     145408,     2048,    11171, 8a744fd4a1355b08f2d31bfe875b9a57
0,     147456,     147456,     2048,    11171, 8a744fd4a1355b08f2d31bfe875b9a57
0,     149504,     149504,     2048,    10516, d76eff0b4922ecf3eba3e49bc2619872
0,     151552,     151552,     2048,    10516, d76eff0b4922ecf3eba3e49bc2619872
0,     153600,     153600,     2048,    11513, 66aa9a529422b79e3466fc01367b155b
0,     155648,     155648,     2048,    11513, 66aa9a529422b79e3466fc01367b155b
0,     157696,     157696,     2048,    11148, a6184ffa6e2687c555e1118badf8fdb5
0,     159744,     159744,     2048,    11148, a6184ffa6e2687c555e1118badf8fdb5
0,     161792,     161792,     2048,    10593, 5d8f85c22393671294bec7102999de36
0,     163840,     163840,     2048,    10593, 5d8f85c22393671294bec7102999de36
0,     165888,     165888,     2048,     9503, 740b7d84832a2e2c00e8cefadcbb1903
0,     167936,     167936,     2048,     9503, 740b7d84832a2e2c00e8cefadcbb1903
0,     169984,     169984,     2048,     9808, 05468fec4f904c4f1365ddacfda89b6e
0,     172032,     172032,     2048,     9808, 05468fec4f904c4f1365ddacfda89b6e
0,     174080,     174080,     2048,    10371, 24e91e2c19b9d2de697fec15449620b1
0,     176128,     176128,     2048,    10371, 24e91e2c19b9d2de697fec15449620b1
0,     178176,     178176,     2048,     9687, 456a8ecf1ad4669b435c6ff342650ef7
0,     180224,     180224,     2048,     9687, 456a8ecf1ad4669b435c6ff342650ef7
0,     182272,     182272,     2048,     9796, 77e6bec695f5254e1019679fd678137e
0,     184320,     184320,     2048,     9796, 77e6bec695f5254e1019679fd678137e
0,     186368,     186368,     2048,    10506, f50b007f32aa9c4583a786779bf4d0ca
0,     188416,     188416,     2048,    10506, f50b007f32aa9c4583a786779bf4d0ca
0,     190464,     190464,     2048,     9657, efc30d44d78592dd46001805ffc622b5
0,     192512,     192512,     2048,     9657, efc30d44d78592dd46001805ffc622b5
0,     194560,     194560,     2048,    10316, 5abb176dff9c47af9801987489d12507
0,     196608,     196608,     2048,    10316, 5abb176dff9c47af9801987489d12507
0,     198656,     198656,     2048,    10411, e76b50bdeb75ba12c5fe909992cd51d4
0,     200704,     200704,     2048,    10411, e76b50bdeb75ba12c5fe909992cd51d4
0,     202752,     202752,     2048,    10732, 3d2fbfdddf92b4823938301961116174
0,     204800,     204800,     2048,    10732, 3d2fbfdddf92b4823938301961116174
0,     206848,     206848,     2048,    10121, 134e8236489642709d2dfb438dd0b89a
0,     208896,     208896,     2048,    10121, 134e8236489642709d2dfb438dd0b89a
0,     210944,     210944,     2048,    10975, c71e628988e703a6dbec5448aa2b8ced
0,     212992,     212992,     2048,    10975, c71e628988e703a6dbec5448aa2b8ced
0,     215040,     215040,     2048,    10961, 7c404037e4a5f8293a22c76e30dfc22f
0,     217088,     217088,     2048,    10961, 7c404037e4a5f8293a22c76e30dfc22f
0,     219136,     219136,     2048,    10242, f3d1f3f0f97130bdfdac43087405551a
0,     221184,     221184,     2048,    10242, f3d1f3f0f97130bdfdac43087405551a
0,     223232,     223232,     2048,    10507, a1d28f67e6bb0b968bc8eee6e86541ba
0,     225280,     225280,     2048,    10507, a1d28f67e6bb0b968bc8eee6e86541ba
0,     227328,     227328,     2048,    10934, 9b9b62830f7edc2e3b080ae31fb24f49
0,     229376,     229376,     2048,    10934, 9b9b62830f7edc2e3b080ae31fb24f49
0,     231424,     231424,     2048,    10520, 01ea7ee0650cf6962606fce15d88f4b5
0,     233472,     233472,     2048,    10520, 01ea7ee0650cf6962606fce15d88f4b5
0,     235520,     235520,     2048,    11511, 5a84ab6579017edb902bb052ee7d18bb
0,     237568,     237568,     2048,    11511, 5a84ab6579017edb902bb052ee7d18bb
0,     239616,     239616,     2048,    11121, f4162c348288a3dad4f4106e32851ef2
0,     241664,     241664,     2048,    11121, f4162c348288a3dad4f4106e32851ef2
0,     243712,     243712,     2048,    11066, 800ba9ecf4e1f40cc2eaf5edac182fc1
0,     245760,     245760,     2048,    11066, 800ba9ecf4e1f40cc2eaf5edac182fc1
0,     247808,     247808,     2048,     9452, 3e77d49c5e0e361546ac7884ab426d2b
0,     249856,     249856,     2048,     8459, 3c1ea6a05818671a853dcb611cae1320
0,     251904,     251904,     2048,     9254, e2064d2cd6acaff4a5364c018125bc3f
0,     253952,     253952,     2048,     9499, afbc606bb1c57fa6377ac7fc6b9960eb
0,     256000,     256000,     2048,     8816, 088262942afaab09e5d242d5a12ad499
0,     258048,     258048,     2048,     9333, 9b1b7fdac6651a0829acfcfad4a502e5
0,     260096,     260096,     2048,     9734, aa577be593d27d48fbec615598f7b72c
0,     262144,     262144,     2048,     8974, b4359d64b7f4d23de0132ab3cf95a1e0
0,     264192,     264192,     2048,    10106, 62517a243a575edf0553744acb53b658
0,     266240,     266240,     2048,     9689, 771d689070fbe686818947f0c86c1d56
0,     268288,     268288,     2048,    10712, 69d2c8fe9d0280824734ac3406c98ce1
0,     270336,     270336,     2048,     9664, 6b0366b780cf8c91dd0b8b884b835c33
0,     272384,     272384,     2048,    10479, 696d8577606a6a53ab3ed95396f83029
0,     274432,     274432,     2048,    10472, 19e6cf804783be1a7067c3d4ed74c3ec
0,     276480,     276480,     2048,     9865, 1f410d5e44d630c19c67ac45a08d58b4
0,     278528,     278528,     2048,    10122, 2cb002b88ad4c7b828399bf0842e9cd5
0,     280576,     280576,     2048,    10597, 9f2575fcd1317bff35bb83ce6c839f5c
0,     282624,     282624,     2048,     9763, ecfe1593cdf6e30f5122428f85d6d4d7
0,     284672,     284672,     2048,    10725, 25c1f74a61d2dd1f8e8686f7d5e32065
0,     286720,     286720,     2048,    10457, 769fe75651cdb6e7de635eda27abea09
0,     288768,     288768,     2048,    11086, 9a126e9b43f64c58241df357f11968a9
0,     290816,     290816,     2048,    10301, f911a72abbff61a2fb1f9f6f48478973
0,     292864,     292864,     2048,    10858, 7638e35733e9457f2d116aa40098d87a
0,     294912,     294912,     2048,    11043, c3f4ca3be2c4a4c97c8f794c64054148
0,     296960,     296960,     2048,    10525, 022ba7b1373fbaf2378b405b35c89807
0,     299008,     299008,     2048,    10953, 82a30185cf8db655f3dc4520147c36df
0,     301056,     301056,     2048,    11243, de185b5c7afd851588ca013e78bdb91e
0,     303104,     303104,     2048,    10613, b7e51345491b4f246c5bc238f9882666
0,     305152,     305152,     2048,    11543, b14e4cf309483a5aa7d2298a7d33de10
0,     307200,     307200,     2048,    11262, 3ce5519aa16d73b654d93f86ec17dce9
0,     309248,     309248,     2048,    11295, 234f88dbe28c43107f28c490810a7b23
0,     311296,     311296,     2048,    10440, b4f9aed67837bca61bf9968e86c43d55
0,     313344,     313344,     2048,    11148, e92e92230334264c03dbb7c2acdd522d
0,     315392,     315392,     2048,    10967, 2a0ad236ce170820dcc1e13199e6b46d
0,     317440,     317440,     2048,    10499, 9fe25e5032465a2001cb12605640abc1
0,     319488,     319488,     2048,    10912, f26a18127427024ca5537eed9bdc3981
0,     321536,     321536,     2048,    10934, 1fc635550d8401c0875b512c62f93854
0,     323584,     323584,     2048,    10628, 4894c5d1d99fa16ffba87999c87333f4
0,     325632,     325632,     2048,    11289, 44c50f753ed040dcd09c62cd906e82a9
0,     327680,     327680,     2048,    10896, 9afbd9ba9d7120518b52fd229dcd1ec6
0,     329728,     329728,     2048,    10348, dce3f2096070efa1f225c7337b489d03
0,     331776,     331776,     2048,     9376, 735689436800fecd2e9f7add2232a623
0,     333824,     333824,     2048,    10138, 48148f1c22492a0f851cba7a4a299cb2
0,     335872,     335872,     2048,    10060, 8d7a7b085007c23ff85d1217cbe4d1ef
0,     337920,     337920,     2048,     9768, 77da32843975df08e291b4da038dcc7c
0,     339968,     339968,     2048,    10344, 94ab593e1b8e27caa8e504b7e7590511
0,     342016,     342016,     2048,    10591, 704bd2fd4f69dfd9ab0fd1cbb4700b09
0,     344064,     344064,     2048,     9820, 6500c8f2b82868d3c6617957f21f456b
0,     346112,     346112,     2048,    10991, fd7b722b7990d369f50b0b2d2fe1e8f6
0,     348160,     348160,     2048,    10456, 0c9b59aeb25cd4ed4705a9ae17d900ea
0,     350208,     350208,     2048,    10975, 057b66412c771c98dcb47dda4f91712a
0,     352256,     352256,     2048,    10066, 46d21e8375c265751b5e98de73913fc6
0,     354304,     354304,     2048,    10755, 51de763e15cdcf842d8532fec46b416d
0,     356352,     356352,     2048,    10812, 4dd4bc9e658e33acbf915a247797c5bf
0,     358400,     358400,     2048,     9834, a0be74078c783bb77a65227b0c6bf253
0,     360448,     360448,     2048,    10680, 4453ba58babbd5c3d1d62225efc6b391
0,     362496,     362496,     2048,    10513, 13b46fb53d99188b1560878a3d39a153
0,     364544,     364544,     2048,    10402, 738fddfb2cd539dfe60003082dfbc3d9
0,     366592,     366592,     2048,    10858, 715670668f1aa50032eddf9e5ba5de00
0,     368640,     368640,     2048,    10470, 5b7272950456a8aa1d4919741903b6b5
0,     370688,     370688,     2048,    10902, 931bc6a62808f4a07e75442c587d1aad
0,     372736,     372736,     2048,     9928, a4b0165b2c5d25d133bd51f5859bcaee
0,     374784,     374784,     2048,    11144, 3ae90ead22463f8f99a014b73b9ded91
0,     376832,     376832,     2048,    10662, f91e4851a700b4b8666ae9f66cc9fdc7
0,     378880,     378880,     2048,    10927, 59be832a9f09afed30cef700f360e8cb
0,     380928,     380928,     2048,    10990, 6a0516e6529434911c4ca8112b7bd752
0,     382976,     382976,     2048,    11183, 54ea41a08e27a709e9c185d196838aea
0,     385024,     385024,     2048,    11100, ae88f11bac603879d8f6b1c056a5b035
0,     387072,     387072,     2048,    11784, 775431dbcbb11150680f819658d9beb8
0,     389120,     389120,     2048,    11612, 25befd76ab2b5bea77ec228c65a0b354
0,     391168,     391168,     2048,    10435, 805ff1826b969502339910f01a3f762a
0,     393216,     393216,     2048,     9844, f1632abb47b998b16c5cd2ae7499d067
0,     395264,     395264,     2048,    10775, 0eaf6304e4452530f01cf14d60ebe0cc
0,     397312,     397312,     2048,    10530, 659dc5ed8c1220fbad5003114d5d7463
0,     399360,     399360,     2048,    10154, dded611a42e79aa3c28775009832dfe5
0,     401408,     401408,     2048,    10698, fbd779a3f5e74b665516a2717f979f82
0,     403456,     403456,     2048,    10917, ebeae47a7239b314bc8d45ba09e224cc
0,     405504,     405504,     2048,     9667, 765ad8d14a2fb0536fe0cd3c340c366f
0,     407552,     407552,     2048,    11304, 5e9c155cc24757e095d030850f69affe
0,     409600,     409600,     2048,    10948, f6cd6f3ffccf8468f811be87172216bf
0,     411648,     411648,     2048,    11844, bda4582b93b243617930bdcc437a8e44
0,     413696,     413696,     2048,    10867, 4aec00a2ab0db4a5eb2cd36863277bf6
0,     415744,     415744,     2048,    11672, c2d8352f4d1a4183d5b206e709a5007a
0,     417792,     417792,     2048,    11594, 315f73a162684b21cbf8a259d3bca61c
0,     419840,     419840,     2048,    10619, 2d48880e84aaa3a535f6af5d48fe2159
0,     421888,     421888,     2048,    11593, 8328cadd41111fc1dd491f217263100d
0,     423936,     423936,     2048,    11749, bf9d8a9b479303dba0436c4ab96cf935
0,     425984,     425984,     2048,    10818, 1dd17ac9400bc89ce8e09eea88d517b6
0,     428032,     428032,     2048,    12068, 98d63978b96bc79d55b844be8e1bc732
0,     430080,     430080,     2048,    11284, 3210008b4ae9fe5b4be2ada8607683b1
0,     432128,     432128,     2048,    11284, 3210008b4ae9fe5b4be2ada8607683b1
0,     434176,     434176,     2048,    10124, 1ad75a3b5eec7137bb3b1738cc6488de
0,     436224,     436224,     2048,    10124, 1ad75a3b5eec7137bb3b1738cc6488de
0,     438272,     438272,     2048,    10773, e278f6f38065400bb17b82be504292d2
0,     440320,     440320,     2048,    10773, e278f6f38065400bb17b82be504292d2
0,     442368,     442368,     2048,    10645, 2b3113dc265c32418e9ad1982c50452f
0,     444416,     444416,     2048,    10645, 2b3113dc265c32418e9ad1982c50452f
0,     446464,     446464,     2048,    10032, 6128e48dd3b9893ce5c3117090e31c14
0,     448512,     448512,     2048,    10032, 6128e48dd3b9893ce5c3117090e31c14
0,     450560,     450560,     2048,    10489, a4d145b9b4f984a4fbca5f621ea58fe3
0,     452608,     452608,     2048,    10489, a4d145b9b4f984a4fbca5f621ea58fe3
0,     454656,     454656,     2048,    10683, 8f00274fb58b2e73ad6789e19c263975
0,     456704,     456704,     2048,    10683, 8f00274fb58b2e73ad6789e19c263975
0,     458752,     458752,     2048,    10439, 151c2031be6aa4b7a1237883627015ad
0,     460800,     460800,     2048,    10439, 151c2031be6aa4b7a1237883627015ad
0,     462848,     462848,     2048,    11402, 0debf28e1e8a2f8786172159c13177e5
0,     464896,     464896,     2048,    11402, 0debf28e1e8a2f8786172159c13177e5
0,     466944,     466944,     2048,    11093, 2bd0fd86dacd94e0424679f546d8f72a
0,     468992,     468992,     2048,    11093, 2bd0fd86dacd94e0424679f546d8f72a
0,     471040,     471040,     2048,    10790, 7c1727b7e72763299e117d9e94a20b77
0,     473088,     473088,     2048,    10790, 7c1727b7e72763299e117d9e94a20b77
0,     475136,     475136,     2048,     9610, c29d5b610c0e0285fac7033b892acf96
0,     477184,     477184,     2048,     9610, c29d5b610c0e0285fac7033b892acf96
0,     479232,     479232,     2048,     9944, 0c25e212fcbf8ee312fdfdeab8fc39e0
0,     481280,     481280,     2048,     9944, 0c25e212fcbf8ee312fdfdeab8fc39e0
0,     483328,     483328,     2048,    10485, 0d0dd62040d6fb5f4b77ab457e12893d
0,     485376,     485376,     2048,    10485, 0d0dd62040d6fb5f4b77ab457e12893d
0,     487424,     487424,     2048,     9730, 66c2b98f801f147de5756bf0ab342f7f
0,     489472,     489472,     2048,     9730, 66c2b98f801f147de5756bf0ab342f7f
0,     491520,     491520,     2048,     9895, a0c20f9a95030969d65d45f7301e080a
0,     493568,     493568,     2048,     9895, a0c20f9a95030969d65d45f7301e080a
0,     495616,     495616,     2048,    10603, e400694601f463a2001784bcfb79a231
0,     497664,     497664,     2048,    10603, e400694601f463a2001784bcfb79a231
0,     499712,     499712,     2048,     9780, 30ecabee45640ef88a648e96d2b6967c
0,     501760,     501760,     2048,     9780, 30ecabee45640ef88a648e96d2b6967c
0,     503808,     503808,     2048,    10975, 29eaf5559b318f8812774edb851c7c06
0,     505856,     505856,     2048,    10975, 29eaf5559b318f8812774edb851c7c06
0,     507904,     507904,     2048,    10509, e118415a605431e13ac0ceb92c3d9f08
0,     509952,     509952,     2048,    10509, e118415a605431e13ac0ceb92c3d9f08
0,     512000,     512000,     2048,    11159, 6fb9f9e707b3d6f3401f2950af10869a
0,     514048,     514048,     2048,    11159, 6fb9f9e707b3d6f3401f2950af10869a
0,     516096,     516096,     2048,    10471, 02d5c1e0e31fb3550e0d4acef1a0e4fb
0,     518144,     518144,     2048,    10471, 02d5c1e0e31fb3550e0d4acef1a0e4fb
0,     520192,     520192,     2048,    11217, c80546ee55b069afc43c608d7248e978
0,     522240,     522240,     2048,    11217, c80546ee55b069afc43c608d7248e978
0,     524288,     524288,     2048,    11307, 9c4d805f7bc18f2bf45c987f312ec810
0,     526336,     526336,     2048,    11307, 9c4d805f7bc18f2bf45c987f312ec810
0,     528384,     528384,     2048,    10713, 704ba2a0e55727d89e80f32c69268900
0,     530432,     530432,     2048,    10713, 704ba2a0e55727d89e80f32c69268900
0,     532480,     532480,     2048,    11229, 44dab1cead74596f84ce4a8cfee03265
0,     534528,     534528,     2048,    11229, 44dab1cead74596f84ce4a8cfee03265
0,     536576,     536576,     2048,    11342, d521928c1645733e7ff3ed79fa9de192
0,     538624,     538624,     2048,    11342, d521928c1645733e7ff3ed79fa9de192
0,     540672,     540672,     2048,    10763, a33524ea6d63e6f0f7f1b43adf67428b
0,     542720,     542720,     2048,    10763, a33524ea6d63e6f0f7f1b43adf67428b
0,     544768,     544768,     2048,    11637, 70db0fbe72a6f0fb53058736a2cc926c
0,     546816,     546816,     2048,    11637, 70db0fbe72a6f0fb53058736a2cc926c
0,     548864,     548864,     2048,    11355, 91f09bafaf89ce0218a0ac6862f3d16c
0,     550912,     550912,     2048,    11355, 91f09bafaf89ce0218a0ac6862f3d16c
0,     552960,     552960,     2048,    10985, bc0e6212c8f97c3e5bca022ef682a3c2
0,     555008,     555008,     2048,    10985, bc0e6212c8f97c3e5bca022ef682a3c2
0,     557056,     557056,     2048,    10088, 11b0ea8fb9323c75df77682bc1cb06f1
0,     559104,     559104,     2048,    10088, 11b0ea8fb9323c75df77682bc1cb06f1
0,     561152,     561152,     2048,    10752, e04dadeb1b562f64760ed4cf30c00402
0,     563200,     563200,     2048,    10752, e04dadeb1b562f64760ed4cf30c00402
0,     565248,     565248,     2048,    10896, dcee1819d309de1716b071969d80dafc
0,     567296,     567296,     2048,    10896, dcee1819d309de1716b071969d80dafc
0,     569344,     569344,     2048,    10275, a1808a742207909cccfe1adc5991a925
0,     571392,     571392,     2048,    10275, a1808a742207909cccfe1adc5991a925
0,     573440,     573440,     2048,    11160, 201b4517b2972190e31ac3fa8f6d44c6
0,     575488,     575488,     2048,    11160, 201b4517b2972190e31ac3fa8f6d44c6
0,     577536,     577536,     2048,    11368, ab25252b55ec00aebfbe09eb10687b28
0,     579584,     579584,     2048,    11368, ab25252b55ec00aebfbe09eb10687b28
0,     581632,     581632,     2048,    10678, 8cd5f838d1d67a52a07f004d1b82b8c8
0,     583680,     583680,     2048,    10678, 8cd5f838d1d67a52a07f004d1b82b8c8
0,     585728,     585728,     2048,    11603, 49e96069eb3587e181e2191800987955
0,     587776,     587776,     2048,    11603, 49e96069eb3587e181e2191800987955
0,     589824,     589824,     2048,    10986, 17d779b7f5639f29086a3f07f70bb3ba
0,     591872,     591872,     2048,    10986, 17d779b7f5639f29086a3f07f70bb3ba
0,     593920,     593920,     2048,    11747, 2eae87e5975015581784e6ecbbb42a05
0,     595968,     595968,     2048,    11747, 2eae87e5975015581784e6ecbbb42a05
0,     598016,     598016,     2048,    10947, 343a0dd688a30a9081b20e9b4e487553
0,     600064,     600064,     2048,    10947, 343a0dd688a30a9081b20e9b4e487553
0,     602112,     602112,     2048,    11895, b78b747175fb0b37d2f1f701cb8d7113
0,     604160,     604160,     2048,    11895, b78b747175fb0b37d2f1f701cb8d7113
0,     606208,     606208,     2048,    11865, 10c98e6ae295f17ea3577087c0c8bef2
0,     608256,     608256,     2048,    11865, 10c98e6ae295f17ea3577087c0c8bef2
0,     610304,     610304,     2048,    11325, 4327be55e56fc4655c22ec2dd3de4639
0,     612352,     612352,     2048,    11325, 4327be55e56fc4655c22ec2dd3de4639
0,     614400,     614400,     2048,    11597, d2ea98e468e6517abce850ff52400a03
0,     616448,     616448,     2048,    11597, d2ea98e468e6517abce850ff52400a03
0,     618496,     618496,     2048,    11875, 6dfdac937fc9179ecbeaf305c2ccfc57
0,     620544,     620544,     2048,    11875, 6dfdac937fc9179ecbeaf305c2ccfc57
0,     622592,     622592,     2048,    11192, f89afa7b2a6d45d62db67e963bb6c63a
0,     624640,     624640,     2048,    11192, f89afa7b2a6d45d62db67e963bb6c63a
0,     626688,     626688,     2048,    11799, 97b74081542b263160e71eb7d8396410
0,     628736,     628736,     2048,    11799, 97b74081542b263160e71eb7d8396410
0,     630784,     630784,     2048,    11499, bda3c7b3d18e33d4e8941fd0af608798
0,     632832,     632832,     2048,    11499, bda3c7b3d18e33d4e8941fd0af608798
0,     634880,     634880,     2048,    10528, 566379b859c80bc32a281dfc818c1bd0
0,     636928,     636928,     2048,    10528, 566379b859c80bc32a281dfc818c1bd0
0,     638976,     638976,     2048,     9430, f18f5687c8dae93e111670a37cec489b
0,     641024,     641024,     2048,     9430, f18f5687c8dae93e111670a37cec489b
0,     643072,     643072,     2048,    10671, 60fd88e1ee1292e4e220881f72988406
0,     645120,     645120,     2048,    10671, 60fd88e1ee1292e4e220881f72988406
0,     647168,     647168,     2048,    10643, 138f6b42017610277820d558a57fa657
0,     649216,     649216,     2048,    10643, 138f6b42017610277820d558a57fa657
0,     651264,     651264,     2048,    10074, b4c7387c9e41b06b3ce5293d044ce6e7
0,     653312,     653312,     2048,    10074, b4c7387c9e41b06b3ce5293d044ce6e7
0,     655360,     655360,     2048,    10418, 7ef119a9b30ac1c5aa7ee0a3cfeadeef
0,     657408,     657408,     2048,    10418, 7ef119a9b30ac1c5aa7ee0a3cfeadeef
0,     659456,     659456,     2048,    10642, 91266b284d8aa54615a7e2c74f2a433a
0,     661504,     661504,     2048,    10642, 91266b284d8aa54615a7e2c74f2a433a
0,     663552,     663552,     2048,     9646, 52567517dd77e72d6b09431e95b96ffb
0,     665600,     665600,     2048,     9646, 52567517dd77e72d6b09431e95b96ffb
0,     667648,     667648,     2048,    10620, db85f770428cf13bf0410e626c81f6cc
0,     669696,     669696,     2048,    10620, db85f770428cf13bf0410e626c81f6cc
0,     671744,     671744,     2048,    10287, f7d85f93ab2cbc33ad448a188c878b08
0,     673792,     673792,     2048,    10287, f7d85f93ab2cbc33ad448a188c878b08
0,     675840,     675840,     2048,    10287, f7d85f93ab2cbc33ad448a188c878b08
0,     677888,     677888,     2048,    10287, f7d85f93ab2cbc33ad448a188c878b08
